<svg width="17" height="17" viewBox="0 0 17 17" fill="none" xmlns="http://www.w3.org/2000/svg">
<path fill-rule="evenodd" clip-rule="evenodd" d="M11.9 0H5.1C2.28335 0 0 2.28335 0 5.1V11.9C0 14.7167 2.28335 17 5.1 17H11.9C14.7167 17 17 14.7167 17 11.9V5.1C17 2.28335 14.7167 0 11.9 0ZM1.69999 5.09999C1.69999 3.22222 3.22222 1.69999 5.09999 1.69999H11.9C13.7778 1.69999 15.3 3.22222 15.3 5.09999V11.9C15.3 13.7778 13.7778 15.3 11.9 15.3H5.09999C3.22222 15.3 1.69999 13.7778 1.69999 11.9V5.09999ZM8.5 12.75C6.15279 12.75 4.25 10.8472 4.25 8.5C4.25 6.15279 6.15279 4.25 8.5 4.25C10.8472 4.25 12.75 6.15279 12.75 8.5C12.75 10.8472 10.8472 12.75 8.5 12.75ZM8.49999 11.05C9.90831 11.05 11.05 9.90831 11.05 8.49999C11.05 7.09166 9.90831 5.94999 8.49999 5.94999C7.09166 5.94999 5.94999 7.09166 5.94999 8.49999C5.94999 9.90831 7.09166 11.05 8.49999 11.05ZM13.6 4.24998C13.6 4.71942 13.2195 5.09998 12.75 5.09998C12.2806 5.09998 11.9 4.71942 11.9 4.24998C11.9 3.78053 12.2806 3.39998 12.75 3.39998C13.2195 3.39998 13.6 3.78053 13.6 4.24998Z" fill="url(#paint0_linear)"/>
<defs>
<linearGradient id="paint0_linear" x1="-5.37602e-09" y1="8.49986" x2="16.8782" y2="8.49753" gradientUnits="userSpaceOnUse">
<stop stop-color="#6C217F"/>
<stop offset="1" stop-color="#ED1556"/>
</linearGradient>
</defs>
</svg>
