<svg width="19" height="17" viewBox="0 0 19 17" fill="none" xmlns="http://www.w3.org/2000/svg">
<path fill-rule="evenodd" clip-rule="evenodd" d="M17.1093 2.24455L18.3753 2.3924L17.8062 3.5329C17.5287 4.08908 17.2509 4.64525 16.9728 5.20143C16.9398 5.31923 16.8819 5.4225 16.7962 5.55695C16.7604 5.61313 16.638 5.79184 16.6323 5.80042C16.6 5.84886 16.5761 5.88707 16.5589 5.91768V8.05508C16.5589 13.5244 11.2658 17 6.26717 17C5.24432 17 4.46719 16.951 3.57732 16.7568C2.11289 16.4372 1.02307 15.802 0.524363 14.6918L0.0109268 13.5487L1.2587 13.434C2.38749 13.3302 3.36618 13.1151 4.11776 12.8272C2.05439 12.4953 0.898079 11.5891 0.898079 9.88718V8.99232H1.79294C1.98955 8.99232 2.16683 8.97637 2.32533 8.94709C0.776737 8.02119 0.0010933 6.53585 0.0010933 4.47565C0.000924081 4.38784 0.000924081 4.38784 0.00039602 4.29395C-0.00542155 3.25552 0.0503556 2.70065 0.33463 1.99248C0.516819 1.53863 0.780165 1.11847 1.13459 0.733486L1.80986 0L2.46638 0.750309C4.62994 3.22293 6.76866 4.72302 8.95231 4.90447C8.96164 2.62287 10.686 0.89622 12.9793 0.89622C14.0484 0.89622 15.0182 1.30203 15.7803 2.03377C16.1975 2.11948 16.6405 2.1898 17.1093 2.24455Z" fill="url(#paint0_linear)"/>
<defs>
<linearGradient id="paint0_linear" x1="-5.81093e-09" y1="8.49986" x2="18.2436" y2="8.49713" gradientUnits="userSpaceOnUse">
<stop stop-color="#6C217F"/>
<stop offset="1" stop-color="#ED1556"/>
</linearGradient>
</defs>
</svg>
